<mxfile host="Electron" agent="Mozilla/5.0 (X11; Linux x86_64) AppleWebKit/537.36 (KHTML, like Gecko) draw.io/26.1.1 Chrome/132.0.6834.210 Electron/34.3.3 Safari/537.36" version="26.1.1">
  <diagram name="Page-1" id="dkm-CszNJxNppMYP-VIc">
    <mxGraphModel dx="576" dy="328" grid="1" gridSize="10" guides="1" tooltips="1" connect="1" arrows="1" fold="1" page="1" pageScale="1" pageWidth="850" pageHeight="1100" math="1" shadow="0">
      <root>
        <mxCell id="0" />
        <mxCell id="1" parent="0" />
        <mxCell id="P0czBwf82s6U8S7LUfZ7-1" value="" style="verticalLabelPosition=bottom;verticalAlign=top;html=1;shape=mxgraph.basic.arc;startAngle=0.006362805673995916;endAngle=0.9952267833287348;fontFamily=Times New Roman;" parent="1" vertex="1">
          <mxGeometry x="377.98429042904286" y="172.14448275862068" width="101.1881188118812" height="101.18793103448274" as="geometry" />
        </mxCell>
        <mxCell id="P0czBwf82s6U8S7LUfZ7-2" value="" style="endArrow=classicThin;startArrow=none;html=1;rounded=0;startFill=0;endFill=1;fillColor=#d5e8d4;strokeColor=#82b366;fontFamily=Times New Roman;" parent="1" edge="1">
          <mxGeometry width="50" height="50" relative="1" as="geometry">
            <mxPoint x="209.9339933993399" y="222.73844827586205" as="sourcePoint" />
            <mxPoint x="271" y="162.94" as="targetPoint" />
          </mxGeometry>
        </mxCell>
        <mxCell id="P0czBwf82s6U8S7LUfZ7-3" value="" style="endArrow=none;startArrow=classicThin;html=1;rounded=0;startFill=1;endFill=1;fillColor=#d5e8d4;strokeColor=#82b366;fontFamily=Times New Roman;" parent="1" edge="1">
          <mxGeometry width="50" height="50" relative="1" as="geometry">
            <mxPoint x="270" y="272.94" as="sourcePoint" />
            <mxPoint x="209.9339933993399" y="222.73844827586205" as="targetPoint" />
          </mxGeometry>
        </mxCell>
        <mxCell id="P0czBwf82s6U8S7LUfZ7-4" value="" style="endArrow=classic;startArrow=classic;html=1;rounded=0;fontFamily=Times New Roman;" parent="1" edge="1">
          <mxGeometry width="50" height="50" relative="1" as="geometry">
            <mxPoint x="210" y="282.94" as="sourcePoint" />
            <mxPoint x="210" y="152.94" as="targetPoint" />
          </mxGeometry>
        </mxCell>
        <mxCell id="P0czBwf82s6U8S7LUfZ7-5" value="" style="endArrow=classic;startArrow=classic;html=1;rounded=0;fontFamily=Times New Roman;" parent="1" edge="1">
          <mxGeometry width="50" height="50" relative="1" as="geometry">
            <mxPoint x="180" y="222.94" as="sourcePoint" />
            <mxPoint x="281" y="222.94" as="targetPoint" />
          </mxGeometry>
        </mxCell>
        <mxCell id="P0czBwf82s6U8S7LUfZ7-6" value="\(\ket{0}\)" style="whiteSpace=wrap;html=1;strokeWidth=0;fontSize=10;fillColor=none;strokeColor=none;fontFamily=Times New Roman;" parent="1" vertex="1">
          <mxGeometry x="283.6303630363036" y="214.30612068965516" width="16.864686468646866" height="16.86465517241379" as="geometry" />
        </mxCell>
        <mxCell id="P0czBwf82s6U8S7LUfZ7-7" value="\(-i\ket{1}\)" style="whiteSpace=wrap;html=1;strokeWidth=0;fontSize=10;fillColor=none;strokeColor=none;fontFamily=Times New Roman;" parent="1" vertex="1">
          <mxGeometry x="201.5" y="285.94" width="16.86" height="7.94" as="geometry" />
        </mxCell>
        <mxCell id="P0czBwf82s6U8S7LUfZ7-8" value="\(-\ket{0}\)" style="whiteSpace=wrap;html=1;strokeWidth=0;fontSize=10;fillColor=none;strokeColor=none;fontFamily=Times New Roman;" parent="1" vertex="1">
          <mxGeometry x="160" y="213.6196551724138" width="16.864686468646866" height="16.86465517241379" as="geometry" />
        </mxCell>
        <mxCell id="P0czBwf82s6U8S7LUfZ7-9" value="\(\ket{i}\)" style="whiteSpace=wrap;html=1;strokeWidth=0;fontSize=10;fillColor=none;strokeColor=none;fontFamily=Times New Roman;" parent="1" vertex="1">
          <mxGeometry x="272.7656765676568" y="151.72870689655173" width="16.864686468646866" height="16.86465517241379" as="geometry" />
        </mxCell>
        <mxCell id="P0czBwf82s6U8S7LUfZ7-10" value="\(\ket{-i}\)" style="whiteSpace=wrap;html=1;strokeWidth=0;fontSize=10;fillColor=none;strokeColor=none;fontFamily=Times New Roman;" parent="1" vertex="1">
          <mxGeometry x="272.9040924092409" y="264.93870689655176" width="16.864686468646866" height="16.86465517241379" as="geometry" />
        </mxCell>
        <mxCell id="P0czBwf82s6U8S7LUfZ7-11" value="" style="verticalLabelPosition=bottom;verticalAlign=top;html=1;shape=mxgraph.basic.arc;startAngle=0.12107104663499402;endAngle=0.35139289200140644;dashed=1;strokeWidth=0.75;fontFamily=Times New Roman;" parent="1" vertex="1">
          <mxGeometry x="193.06930693069307" y="205.87379310344826" width="33.72937293729373" height="33.72931034482758" as="geometry" />
        </mxCell>
        <mxCell id="P0czBwf82s6U8S7LUfZ7-12" value="&lt;font&gt;\(\frac{\pi}{4}\)&lt;/font&gt;" style="whiteSpace=wrap;html=1;strokeWidth=0;fontSize=8;fillColor=none;strokeColor=none;fontFamily=Times New Roman;" parent="1" vertex="1">
          <mxGeometry x="237.9963366336633" y="201.1268103448276" width="16.864686468646866" height="16.86465517241379" as="geometry" />
        </mxCell>
        <mxCell id="P0czBwf82s6U8S7LUfZ7-13" value="&lt;font&gt;\(-\frac{\pi}{4}\)&lt;/font&gt;" style="whiteSpace=wrap;html=1;strokeWidth=0;fontSize=8;fillColor=none;strokeColor=none;fontFamily=Times New Roman;" parent="1" vertex="1">
          <mxGeometry x="236.07343234323434" y="226.26681034482758" width="16.864686468646866" height="16.86465517241379" as="geometry" />
        </mxCell>
        <mxCell id="P0czBwf82s6U8S7LUfZ7-14" value="&lt;span style=&quot;text-wrap-mode: nowrap;&quot;&gt;&lt;font style=&quot;font-size: 9px;&quot;&gt;Projection&lt;/font&gt;&lt;/span&gt;" style="whiteSpace=wrap;html=1;fillColor=none;strokeColor=none;fontFamily=Times New Roman;" parent="1" vertex="1">
          <mxGeometry x="297" y="199.13" width="40.76" height="16.86" as="geometry" />
        </mxCell>
        <mxCell id="P0czBwf82s6U8S7LUfZ7-15" value="" style="endArrow=block;html=1;rounded=0;strokeWidth=2;endFill=1;fontFamily=Times New Roman;" parent="1" edge="1">
          <mxGeometry width="50" height="50" relative="1" as="geometry">
            <mxPoint x="300.0038613861386" y="222.53607241379308" as="sourcePoint" />
            <mxPoint x="347.39" y="222.94" as="targetPoint" />
          </mxGeometry>
        </mxCell>
        <mxCell id="P0czBwf82s6U8S7LUfZ7-16" value="" style="endArrow=none;startArrow=none;html=1;rounded=0;startFill=0;fillColor=#d5e8d4;strokeColor=#82b366;fontFamily=Times New Roman;strokeWidth=1;" parent="1" edge="1">
          <mxGeometry width="50" height="50" relative="1" as="geometry">
            <mxPoint x="496.03709570957096" y="222.73844827586205" as="sourcePoint" />
            <mxPoint x="361.11960396039603" y="222.73844827586205" as="targetPoint" />
          </mxGeometry>
        </mxCell>
        <mxCell id="P0czBwf82s6U8S7LUfZ7-17" value="" style="endArrow=none;startArrow=none;html=1;rounded=0;startFill=0;fontFamily=Times New Roman;strokeWidth=1;" parent="1" edge="1">
          <mxGeometry width="50" height="50" relative="1" as="geometry">
            <mxPoint x="428.57834983498356" y="290.1970689655172" as="sourcePoint" />
            <mxPoint x="428.57834983498356" y="152.94" as="targetPoint" />
          </mxGeometry>
        </mxCell>
        <mxCell id="P0czBwf82s6U8S7LUfZ7-18" value="\(\ket{0}\)" style="whiteSpace=wrap;html=1;strokeWidth=0;fontSize=11;fillColor=none;strokeColor=none;fontFamily=Times New Roman;" parent="1" vertex="1">
          <mxGeometry x="433.48099009901" y="153.8475" width="16.864686468646866" height="16.86465517241379" as="geometry" />
        </mxCell>
        <mxCell id="P0czBwf82s6U8S7LUfZ7-19" value="" style="ellipse;whiteSpace=wrap;html=1;aspect=fixed;fontFamily=Times New Roman;" parent="1" vertex="1">
          <mxGeometry x="426.0486468646865" y="169.6147844827586" width="5.059396551724138" height="5.059396551724138" as="geometry" />
        </mxCell>
        <mxCell id="P0czBwf82s6U8S7LUfZ7-20" value="\(-\ket{0}\)" style="whiteSpace=wrap;html=1;strokeWidth=0;fontSize=11;fillColor=none;strokeColor=none;fontFamily=Times New Roman;" parent="1" vertex="1">
          <mxGeometry x="403.75161716171624" y="153.8475" width="16.864686468646866" height="16.86465517241379" as="geometry" />
        </mxCell>
        <mxCell id="P0czBwf82s6U8S7LUfZ7-21" value="\(\ket{i}\)" style="whiteSpace=wrap;html=1;strokeWidth=0;fontSize=11;fillColor=none;strokeColor=none;fontColor=#82B366;fontFamily=Times New Roman;" parent="1" vertex="1">
          <mxGeometry x="484.86" y="203.13" width="10.14" height="16.86" as="geometry" />
        </mxCell>
        <mxCell id="P0czBwf82s6U8S7LUfZ7-22" value="\(\ket{-i}\)" style="whiteSpace=wrap;html=1;strokeWidth=0;fontSize=11;fontStyle=0;fillColor=none;strokeColor=none;fontColor=#82B366;fontFamily=Times New Roman;" parent="1" vertex="1">
          <mxGeometry x="356" y="204.81" width="17" height="16.86" as="geometry" />
        </mxCell>
        <mxCell id="P0czBwf82s6U8S7LUfZ7-23" value="" style="ellipse;whiteSpace=wrap;html=1;aspect=fixed;fontFamily=Times New Roman;" parent="1" vertex="1">
          <mxGeometry x="426.0486468646865" y="270.8027155172413" width="5.059396551724138" height="5.059396551724138" as="geometry" />
        </mxCell>
        <mxCell id="P0czBwf82s6U8S7LUfZ7-24" value="\(-i\ket{1}\)" style="whiteSpace=wrap;html=1;strokeWidth=0;fontSize=11;fillColor=none;strokeColor=none;fontFamily=Times New Roman;" parent="1" vertex="1">
          <mxGeometry x="402.4380858085809" y="276.7053448275862" width="16.864686468646866" height="16.86465517241379" as="geometry" />
        </mxCell>
        <mxCell id="P0czBwf82s6U8S7LUfZ7-25" value="\(i\ket{1}\)" style="whiteSpace=wrap;html=1;strokeWidth=0;fontSize=11;fillColor=none;strokeColor=none;fontFamily=Times New Roman;" parent="1" vertex="1">
          <mxGeometry x="436.16745874587457" y="276.7053448275862" width="16.864686468646866" height="16.86465517241379" as="geometry" />
        </mxCell>
        <mxCell id="P0czBwf82s6U8S7LUfZ7-26" value="&lt;font&gt;\(z\)-axis&lt;/font&gt;" style="whiteSpace=wrap;html=1;strokeWidth=0;fontSize=8;fillColor=none;strokeColor=none;fontFamily=Times New Roman;" parent="1" vertex="1">
          <mxGeometry x="417.83000000000004" y="141.09" width="21.5" height="7.79" as="geometry" />
        </mxCell>
        <mxCell id="P0czBwf82s6U8S7LUfZ7-27" value="&lt;font&gt;\(y\)-axis&lt;/font&gt;" style="whiteSpace=wrap;html=1;strokeWidth=0;fontSize=8;fillColor=none;strokeColor=none;fontFamily=Times New Roman;" parent="1" vertex="1">
          <mxGeometry x="483.2318151815183" y="222.73844827586205" width="43.84818481848185" height="16.86465517241379" as="geometry" />
        </mxCell>
        <mxCell id="P0czBwf82s6U8S7LUfZ7-28" value="" style="ellipse;whiteSpace=wrap;html=1;aspect=fixed;fillColor=#d5e8d4;strokeColor=#82b366;fontFamily=Times New Roman;" parent="1" vertex="1">
          <mxGeometry x="375.4545874587459" y="220.20874999999998" width="5.059396551724138" height="5.059396551724138" as="geometry" />
        </mxCell>
        <mxCell id="P0czBwf82s6U8S7LUfZ7-29" value="" style="ellipse;whiteSpace=wrap;html=1;aspect=fixed;fillColor=#d5e8d4;strokeColor=#82b366;fontFamily=Times New Roman;" parent="1" vertex="1">
          <mxGeometry x="476.6427062706272" y="220.20874999999998" width="5.059396551724138" height="5.059396551724138" as="geometry" />
        </mxCell>
        <mxCell id="P0czBwf82s6U8S7LUfZ7-30" value="&lt;font&gt;&lt;font&gt;&lt;span style=&quot;text-wrap-mode: nowrap;&quot;&gt;\(Im(\mathbb{C})\mathbb{P}\)&lt;/span&gt;&lt;/font&gt;&lt;/font&gt;" style="whiteSpace=wrap;html=1;fillColor=none;strokeColor=none;fontFamily=Times New Roman;fontSize=9;" parent="1" vertex="1">
          <mxGeometry x="411" y="120" width="39.16" height="16.86" as="geometry" />
        </mxCell>
        <mxCell id="P0czBwf82s6U8S7LUfZ7-31" value="&lt;span style=&quot;text-wrap-mode: nowrap;&quot;&gt;&lt;font&gt;\(Im(\mathbb{C}^2)\)&lt;/font&gt;&lt;/span&gt;" style="whiteSpace=wrap;html=1;fillColor=none;strokeColor=none;fontFamily=Times New Roman;fontSize=9;" parent="1" vertex="1">
          <mxGeometry x="191" y="120" width="36.49" height="16.86" as="geometry" />
        </mxCell>
        <mxCell id="P0czBwf82s6U8S7LUfZ7-32" value="\(i\ket{1}\)" style="whiteSpace=wrap;html=1;strokeWidth=0;fontSize=10;fillColor=none;strokeColor=none;fontFamily=Times New Roman;" parent="1" vertex="1">
          <mxGeometry x="203.19000000000005" y="140.94000000000003" width="16.86" height="7.94" as="geometry" />
        </mxCell>
        <mxCell id="P0czBwf82s6U8S7LUfZ7-33" value="\((0)\)" style="whiteSpace=wrap;html=1;strokeWidth=0;fontSize=10;fillColor=none;strokeColor=none;fontFamily=Times New Roman;" parent="1" vertex="1">
          <mxGeometry x="428.05099009901005" y="175.6775" width="16.864686468646866" height="16.86465517241379" as="geometry" />
        </mxCell>
        <mxCell id="P0czBwf82s6U8S7LUfZ7-34" value="\((\frac{\pi}{4})\)" style="whiteSpace=wrap;html=1;strokeWidth=0;fontSize=9;fillColor=none;strokeColor=none;fontFamily=Times New Roman;" parent="1" vertex="1">
          <mxGeometry x="452.0309900990102" y="204.80749999999998" width="16.864686468646866" height="16.86465517241379" as="geometry" />
        </mxCell>
        <mxCell id="P0czBwf82s6U8S7LUfZ7-35" value="\((\pi)\)" style="whiteSpace=wrap;html=1;strokeWidth=0;fontSize=9;fillColor=none;strokeColor=none;fontFamily=Times New Roman;" parent="1" vertex="1">
          <mxGeometry x="411.19099009901015" y="175.67749999999998" width="16.864686468646866" height="16.86465517241379" as="geometry" />
        </mxCell>
        <mxCell id="P0czBwf82s6U8S7LUfZ7-36" value="\(-(\frac{\pi}{4})\)" style="whiteSpace=wrap;html=1;strokeWidth=0;fontSize=9;fillColor=none;strokeColor=none;fontFamily=Times New Roman;" parent="1" vertex="1">
          <mxGeometry x="389.5109900990102" y="203.87749999999997" width="16.864686468646866" height="16.86465517241379" as="geometry" />
        </mxCell>
        <mxCell id="P0czBwf82s6U8S7LUfZ7-37" value="\((\frac{\pi}{2})\)" style="whiteSpace=wrap;html=1;strokeWidth=0;fontSize=9;fillColor=none;strokeColor=none;fontFamily=Times New Roman;" parent="1" vertex="1">
          <mxGeometry x="432.1109900990102" y="248.93749999999994" width="16.864686468646866" height="16.86465517241379" as="geometry" />
        </mxCell>
        <mxCell id="P0czBwf82s6U8S7LUfZ7-38" value="\(-(\frac{\pi}{2})\)" style="whiteSpace=wrap;html=1;strokeWidth=0;fontSize=9;fillColor=none;strokeColor=none;fontFamily=Times New Roman;" parent="1" vertex="1">
          <mxGeometry x="407.1809900990103" y="248.93749999999994" width="16.864686468646866" height="16.86465517241379" as="geometry" />
        </mxCell>
      </root>
    </mxGraphModel>
  </diagram>
</mxfile>
